# xmcd CD database file
#
# Track frame offsets:
#	150
#	12302
#	29526
#	52094
#	68023
#	86042
#	100874
#	117540
#	132711
#	145053
#	160921
#	178254
#	191623
#	201931
#	220061
#
# Disc length: 3168 seconds
#
# Revision: 0
# Processed by: cddbd v1.5.2PL0 Copyright (c) Steve Scherf et al.
# Submitted via: CDex 1.70beta2
#
DISCID=e50c5e0f
DTITLE=Mike Whellans - Fired Up and Ready
DYEAR=2008
DGENRE=Blues
TTITLE0=Fired Up and Ready
TTITLE1=The Boogie Man
TTITLE2=Going To My Home Town
TTITLE3=I Want To Hug You
TTITLE4=Danger Man II
TTITLE5=Early In The Morning
TTITLE6=Winding Track
TTITLE7=Diving Duck Blues
TTITLE8=Red Hot Kisses
TTITLE9=Lonesome Road
TTITLE10=Worried Mind
TTITLE11=Nobody's Fault But Mine
TTITLE12=Pinetop Moon
TTITLE13=Ragtime Joe
TTITLE14=Strange Love
EXTD=YEAR: 2008
EXTT0=
EXTT1=
EXTT2=
EXTT3=
EXTT4=
EXTT5=
EXTT6=
EXTT7=
EXTT8=
EXTT9=
EXTT10=
EXTT11=
EXTT12=
EXTT13=
EXTT14=
PLAYORDER=
